<svg width="20" height="20" viewBox="0 0 20 20" fill="none" xmlns="http://www.w3.org/2000/svg">
<path opacity="0.4" d="M3.92385 1.07544C2.83068 2.16861 2.06413 3.52735 1.68701 5.00002M16.0142 1.07544C17.1074 2.16861 17.8739 3.52735 18.251 5.00002" stroke="#9896A1" stroke-width="2" stroke-linecap="round" stroke-linejoin="round"/>
<path d="M2.81247 13.9359L3.467 13.1799C3.44763 13.1631 3.42762 13.1471 3.40702 13.1319L2.81247 13.9359ZM17.1842 13.9359L16.5897 13.1319C16.5691 13.1471 16.5491 13.1631 16.5297 13.1799L17.1842 13.9359ZM17.2072 11.2471L16.6122 12.0508L17.2072 11.2471ZM4.52203 9.85234L3.60177 9.46103L4.52203 9.85234ZM9.99835 1.14233C8.41295 1.14233 6.89249 1.77213 5.77145 2.89317L7.18566 4.30739C7.93163 3.56142 8.94338 3.14233 9.99835 3.14233V1.14233ZM5.77145 2.89317C4.6504 4.01422 4.02061 5.53468 4.02061 7.12008H6.02061C6.02061 6.06511 6.43969 5.05336 7.18566 4.30739L5.77145 2.89317ZM2.81247 13.9359C2.15795 14.692 2.15884 14.6928 2.15973 14.6935C2.16004 14.6938 2.16094 14.6946 2.16155 14.6951C2.16277 14.6961 2.16401 14.6972 2.16527 14.6983C2.16779 14.7004 2.17038 14.7026 2.17306 14.7048C2.17842 14.7093 2.18409 14.7139 2.19009 14.7188C2.2021 14.7284 2.21543 14.7387 2.23016 14.7497C2.25962 14.7717 2.29468 14.7962 2.33605 14.8228C2.41876 14.876 2.5267 14.9375 2.66568 15.0041C2.94308 15.1369 3.3469 15.2907 3.92631 15.4372C5.08168 15.7293 6.96534 15.9995 9.99835 15.9995V13.9995C7.07396 13.9995 5.36468 13.7379 4.41646 13.4982C3.94408 13.3788 3.66844 13.2668 3.52934 13.2002C3.46006 13.167 3.42548 13.1455 3.41774 13.1405C3.41388 13.138 3.41673 13.1397 3.42529 13.1461C3.42957 13.1493 3.43527 13.1536 3.44227 13.1592C3.44576 13.1621 3.44958 13.1652 3.45371 13.1686C3.45578 13.1703 3.45792 13.1721 3.46013 13.174C3.46124 13.175 3.46237 13.1759 3.46351 13.1769C3.46408 13.1774 3.46496 13.1781 3.46524 13.1784C3.46612 13.1791 3.467 13.1799 2.81247 13.9359ZM4.02061 7.12008C4.02061 8.13828 3.84114 8.89809 3.60177 9.46103L5.44229 10.2436C5.79774 9.40773 6.02061 8.37808 6.02061 7.12008H4.02061ZM2.1945 10.4434C1.41405 11.0212 1.13629 11.9061 1.17379 12.6827C1.21029 13.4384 1.55069 14.2466 2.21793 14.74L3.40702 13.1319C3.31339 13.0627 3.18493 12.865 3.17147 12.5863C3.15902 12.3285 3.25021 12.1503 3.38452 12.0508L2.1945 10.4434ZM9.99835 3.14233C11.0533 3.14233 12.0651 3.56142 12.811 4.30739L14.2252 2.89317C13.1042 1.77213 11.5837 1.14233 9.99835 1.14233V3.14233ZM12.811 4.30739C13.557 5.05336 13.9761 6.06511 13.9761 7.12007H15.9761C15.9761 5.53468 15.3463 4.01422 14.2252 2.89317L12.811 4.30739ZM17.1842 13.9359C16.5297 13.1799 16.5306 13.1791 16.5314 13.1784C16.5317 13.1781 16.5326 13.1774 16.5332 13.1769C16.5343 13.1759 16.5355 13.175 16.5366 13.174C16.5388 13.1721 16.5409 13.1703 16.543 13.1686C16.5471 13.1652 16.5509 13.1621 16.5544 13.1592C16.5614 13.1536 16.5671 13.1493 16.5714 13.1461C16.58 13.1397 16.5828 13.138 16.579 13.1405C16.5712 13.1455 16.5366 13.167 16.4674 13.2002C16.3283 13.2668 16.0526 13.3788 15.5802 13.4982C14.632 13.7379 12.9227 13.9995 9.99835 13.9995V15.9995C13.0314 15.9995 14.915 15.7293 16.0704 15.4372C16.6498 15.2907 17.0536 15.1369 17.331 15.0041C17.47 14.9375 17.5779 14.876 17.6606 14.8228C17.702 14.7962 17.7371 14.7717 17.7665 14.7497C17.7813 14.7387 17.7946 14.7284 17.8066 14.7188C17.8126 14.7139 17.8183 14.7093 17.8236 14.7048C17.8263 14.7026 17.8289 14.7004 17.8314 14.6983C17.8327 14.6972 17.8339 14.6961 17.8351 14.6951C17.8358 14.6946 17.8367 14.6938 17.837 14.6935C17.8379 14.6928 17.8387 14.692 17.1842 13.9359ZM13.9761 7.12007C13.9761 8.37808 14.199 9.40773 14.5544 10.2436L16.3949 9.46103C16.1555 8.89809 15.9761 8.13828 15.9761 7.12007H13.9761ZM16.6122 12.0508C16.7465 12.1503 16.8377 12.3285 16.8252 12.5863C16.8118 12.865 16.6833 13.0627 16.5897 13.1319L17.7788 14.74C18.446 14.2466 18.7864 13.4384 18.8229 12.6827C18.8604 11.9061 18.5826 11.0212 17.8022 10.4434L16.6122 12.0508ZM14.5544 10.2436C14.8223 10.8737 15.3085 11.2448 15.684 11.485C15.8683 11.603 16.0709 11.7162 16.2187 11.8018C16.3815 11.8961 16.5068 11.9728 16.6122 12.0508L17.8022 10.4434C17.6012 10.2946 17.394 10.1713 17.2211 10.0711C17.0332 9.9623 16.8969 9.88673 16.762 9.80041C16.499 9.63215 16.4254 9.53269 16.3949 9.46103L14.5544 10.2436ZM3.60177 9.46103C3.5713 9.53269 3.49765 9.63215 3.23471 9.80041C3.09981 9.88673 2.96349 9.9623 2.77562 10.0711C2.60269 10.1713 2.3955 10.2946 2.1945 10.4434L3.38452 12.0508C3.48994 11.9728 3.61522 11.8961 3.77797 11.8018C3.92579 11.7162 4.12835 11.603 4.31268 11.485C4.68819 11.2448 5.17439 10.8737 5.44229 10.2436L3.60177 9.46103Z" fill="#9896A1"/>
<path d="M9.11856 17.324C8.85752 16.8373 8.25136 16.6543 7.76466 16.9154C7.27796 17.1764 7.09502 17.7826 7.35605 18.2693L9.11856 17.324ZM12.8979 18.2693C13.1589 17.7826 12.976 17.1764 12.4893 16.9154C12.0026 16.6543 11.3964 16.8373 11.1354 17.324L12.8979 18.2693ZM10.127 17.9281C9.69222 17.9281 9.31257 17.6857 9.11856 17.324L7.35605 18.2693C7.88446 19.2545 8.92627 19.9281 10.127 19.9281V17.9281ZM11.1354 17.324C10.9413 17.6857 10.5617 17.9281 10.127 17.9281V19.9281C11.3276 19.9281 12.3695 19.2545 12.8979 18.2693L11.1354 17.324Z" fill="#9896A1"/>
</svg>
