<svg width="149" height="34" viewBox="0 0 149 34" fill="none" xmlns="http://www.w3.org/2000/svg">
<path d="M148 1C129.701 1 127.364 18.8321 109.065 18.8321C90.7666 18.8321 93.8002 33 75.5016 33C57.2029 33 57.5527 12.9694 39.254 12.9694C27.4382 13.0945 15.1742 9.69291 1.87079 9.44094C0.189178 9.36308 2.07684 1 0 1" fill="url(#paint0_linear_8_350)"/>
<path d="M148 1.66667C129.699 1.66667 127.361 19.1272 109.06 19.1272C90.7594 19.1272 93.7933 33 75.4924 33C57.1915 33 57.5413 13.3867 39.2403 13.3867C20.9394 13.3867 19.9454 10.0486 1.64444 10.0486" stroke="#2DC78F" stroke-width="2" stroke-linecap="round"/>
<defs>
<linearGradient id="paint0_linear_8_350" x1="74" y1="33" x2="74" y2="1" gradientUnits="userSpaceOnUse">
<stop stop-color="#18CB80" stop-opacity="0.08"/>
<stop offset="1" stop-color="#18CB80" stop-opacity="0"/>
</linearGradient>
</defs>
</svg>
